<?xml version="1.0" encoding="UTF-8" standalone="no"?>
<svg
   xmlns:dc="http://purl.org/dc/elements/1.1/"
   xmlns:cc="http://creativecommons.org/ns#"
   xmlns:rdf="http://www.w3.org/1999/02/22-rdf-syntax-ns#"
   xmlns:svg="http://www.w3.org/2000/svg"
   xmlns="http://www.w3.org/2000/svg"
   viewBox="0 0 568.62665 703.14667"
   height="703.14667"
   width="568.62665"
   xml:space="preserve"
   id="svg2"
   version="1.1"><metadata
     id="metadata8"><rdf:RDF><cc:Work
         rdf:about=""><dc:format>image/svg+xml</dc:format><dc:type
           rdf:resource="http://purl.org/dc/dcmitype/StillImage" /></cc:Work></rdf:RDF></metadata><defs
     id="defs6"><clipPath
       id="clipPath20"
       clipPathUnits="userSpaceOnUse"><path
         id="path18"
         d="M 0,5273.61 V 0 h 4264.66 v 5273.61 z" /></clipPath></defs><g
     transform="matrix(1.3333333,0,0,-1.3333333,0,703.14667)"
     id="g10"><g
       transform="scale(0.1)"
       id="g12"><g
         id="g14"><g
           clip-path="url(#clipPath20)"
           id="g16"><path
             id="path22"
             style="fill:#7fcb2b;fill-opacity:1;fill-rule:nonzero;stroke:none"
             d="m 2289.71,2548.85 c -57.55,73.28 -133.77,114.32 -226.09,121.11 -30.65,2.25 -42.86,7.14 -42.71,41.35 1.33,303.27 1.18,606.56 0.14,909.84 -0.11,29.72 7.03,38.03 36.12,30.15 68.15,-18.46 138.11,-20.37 208.18,-18.08 72,2.35 118.97,47.72 119.02,113.71 0.04,68.06 -48.72,113.56 -123.35,114.23 -44.98,0.4 -89.79,0.37 -134.34,9 -64.81,12.56 -98.87,45.19 -103.7,109.13 -3,39.71 -2.8,80.22 1.42,119.79 6.85,64.11 44.07,106.76 105.29,126.45 82.59,26.55 163.94,20.45 243.36,-13.75 19.53,-8.41 33.42,-14.23 18.19,-43.11 -27.92,-52.93 -17.74,-102.1 19.32,-137.31 36.78,-34.93 89.66,-40.29 144.08,-14.6 135.9,64.16 276.34,37.12 360.99,-70.01 7.9,-10 21.25,-19.81 16.54,-34.38 -5.53,-17.1 -22.66,-9.35 -34.69,-10.99 -185.98,-25.3 -326.83,-181.6 -331.2,-368.12 -1.51,-64.35 41.53,-116.48 100.75,-122.03 66.21,-6.2 121.9,33.18 125.65,99.47 8.78,154.84 134.77,188.28 257.08,152.62 112.87,-32.91 194.18,-162.47 184.37,-279.28 -2.46,-29.38 -11.64,-38.71 -40.19,-27.92 -45.98,17.36 -94.08,21.08 -142.62,16.71 -57.72,-5.19 -97.06,-47.92 -99,-105.56 -2,-59.24 36.99,-114.64 93.28,-115.86 89.63,-1.94 146.55,-44.55 182.35,-122.33 40.07,-87.07 34.64,-174.44 -0.17,-261.4 -13.42,-33.53 -26.82,-11.13 -37.88,1.97 -42.01,49.77 -87.29,95.82 -140.4,134.09 -107.89,77.73 -226.64,126.24 -360.45,130.04 -40.58,1.15 -55.86,16.4 -66.22,54.9 -47.57,176.74 -216.01,296.12 -396.82,285.41 -60.32,-3.57 -103.77,-46.52 -105.89,-104.67 -2.45,-66.96 35.23,-114.78 100.65,-118.96 88.08,-5.64 152.81,-39.73 183.66,-127.14 8.64,-24.47 3.73,-37.16 -20.05,-45.76 -36.15,-13.08 -68.86,-33.01 -100.82,-54.12 -71.67,-47.34 -91.46,-114.04 -51.39,-173.14 38.97,-57.46 106.75,-65.23 176.31,-20.19 203.06,131.47 450.83,86.13 602.26,-101.75 116.4,-144.41 49.7,-321.57 -42.6,-404.42 -84.09,-75.5 -185.36,-107.9 -299.87,-96.57 -35.24,3.49 -46.91,9.94 -29.55,47.46 26.11,56.41 34.76,117.83 32.43,180.12 -2.47,66.13 -51.17,115.82 -112.57,116.3 -66.79,0.53 -112.79,-46.12 -115.48,-117.13 -5.52,-145.9 -101.78,-247.33 -233.74,-246.3 -100.55,0.77 -176.88,70.74 -185.58,171.36 -2,23.14 -0.29,46.6 -0.29,69.92 -0.6,0 -1.2,0 -1.79,0 0,11.66 -1.18,23.47 0.26,34.96 2.35,18.7 -10.8,44.64 10.45,54.51 24.72,11.48 49.39,-2.61 67.18,-21.43 28.63,-30.29 59.37,-50.96 104.07,-49.68 45.26,1.29 76.49,22.05 96.15,59.63 21.72,41.52 19.74,83.78 -10.1,121.76 z M 1951,1966.77 c 142.8,-109.82 299.75,-116.44 460.73,-42.18 32.44,14.96 59.77,19.62 94.1,6.9 83.82,-31.04 171.05,-38.16 260.36,-32.2 265.31,17.7 487.02,215.78 527.22,477.51 10.45,68.06 32.42,124.24 74.8,182.09 134.31,183.32 157.75,383.61 54.27,591.69 -10.72,21.56 -11.43,38.5 -1.49,60.72 38.91,86.96 53,178.05 37.01,272.74 -25.3,149.78 -106.08,262.73 -230.29,347.16 -15.46,10.51 -31.8,18.19 -36.01,43.2 -45.28,269.02 -298.91,416.55 -507.25,406.62 -22.78,-1.08 -40.95,3.32 -57.52,21.57 -111.73,123.01 -253.99,169.87 -416.97,167.24 -254.87,-4.12 -416.81,-167.17 -416.84,-422.18 -0.02,-288.33 0,-576.66 0,-864.98 0.01,-298.33 -1.9,-596.68 0.89,-894.98 1.21,-129.75 53.58,-241.41 156.99,-320.92" /><path
             id="path24"
             style="fill:#7fcb2b;fill-opacity:1;fill-rule:nonzero;stroke:none"
             d="m 3600.71,3753.38 c 11.84,-27.97 25.32,-39.69 56.45,-25.6 54.14,24.51 109.55,46.2 154.03,64.74 -39.79,-43.12 -84.16,-95.01 -132.78,-142.58 -33.81,-33.09 -6.24,-58.63 5.13,-84.72 11.75,-26.97 33.27,-11.34 51.18,-3.78 110.22,46.5 220.23,93.49 330.77,139.2 28.98,11.98 49.22,21.55 33.26,61 -17.15,42.39 -41.47,27.69 -67.66,16.89 -47.03,-19.39 -93.84,-39.35 -148.88,-62.5 52.74,55.44 96.19,103.42 142.27,148.73 31.41,30.89 4.46,55.35 -5.59,80.69 -11.38,28.71 -33.1,13.13 -50.4,5.89 -114.89,-48.13 -229.27,-97.48 -344.43,-144.93 -27.43,-11.29 -35.36,-24.65 -23.35,-53.03" /><path
             id="path26"
             style="fill:#7fcb2b;fill-opacity:1;fill-rule:nonzero;stroke:none"
             d="m 3733.89,3527.87 c -33.53,-8.49 -35.72,-26.75 -29.34,-55.4 6.93,-31.14 23.25,-35.51 50.97,-27.54 55.65,16.01 111.87,30 167.86,44.82 1.25,-2.1 2.49,-4.19 3.74,-6.29 -6.16,-5.34 -11.96,-11.19 -18.55,-15.95 -47.11,-34.08 -93.37,-69.48 -141.93,-101.37 -38.77,-25.46 -18.28,-56.09 -10.17,-84.1 9.22,-31.83 33.33,-16.98 53.63,-11.64 118.89,31.27 237.8,62.49 356.82,93.25 28.97,7.48 40.62,19.23 30.28,52.71 -9.79,31.66 -22.11,39.26 -53.33,29.72 -53.96,-16.48 -109.06,-29.22 -163.69,-43.53 48.42,46.95 99.24,86.87 152.63,122.98 37.77,25.55 19.94,55.48 11.3,84.07 -9.66,31.98 -33.53,17.51 -53.67,12.17 -118.81,-31.46 -237.42,-63.71 -356.55,-93.9" /><path
             id="path28"
             style="fill:#7fcb2b;fill-opacity:1;fill-rule:nonzero;stroke:none"
             d="m 4131.36,3089.45 c -47.69,-4.31 -95.26,-9.91 -142.8,-15.65 -24.85,-3.01 -49.69,-6.06 -74.54,-9.02 -21.23,-2.53 -38.32,-6.49 -43.27,19.36 -4.82,25.23 -14.06,74.36 22.28,77.55 75.68,6.64 151.51,12.99 226.68,23.71 24.15,3.44 39,-6.42 39.07,-31.72 0.08,-26.98 9.31,-60.9 -27.42,-64.23 z m -31.82,180.67 c -70.96,-7.55 -141.91,-15.52 -212.62,-25.11 -94.15,-12.77 -109.78,-32.63 -105.2,-125.91 3.3,-24.6 3.93,-49.95 10.52,-73.64 11.2,-40.21 37.2,-70.04 81.65,-66.45 102.52,8.27 204.94,18.77 306.9,32.16 45.72,6.01 67.46,43.08 65.76,96.19 -3.55,110.67 -24.78,157.41 -77.37,164 -22.83,2.87 -46.6,1.21 -69.64,-1.24" /><path
             id="path30"
             style="fill:#7fcb2b;fill-opacity:1;fill-rule:nonzero;stroke:none"
             d="m 3953.71,2420.94 c -23.88,-0.86 -21.13,15.36 -19.74,30.35 1.73,18.84 12.58,21.04 27.81,14.29 25.46,-11.29 50.94,-22.51 88.26,-38.99 -41.08,-11.89 -68.85,-4.66 -96.33,-5.65 z m 223.12,40.55 c -115.76,49.95 -229.37,104.88 -344.11,157.22 -14.05,6.4 -30.34,20 -45.07,2.05 -14.48,-17.65 -18.6,-39.84 -12.88,-61.25 4.76,-17.81 24.46,-22.34 39.45,-26.79 36.61,-10.87 46.83,-29.71 39.47,-68.92 -8.15,-43.45 -34.33,-41.14 -65.03,-39.09 -8.27,0.55 -16.61,-0.17 -24.92,-0.13 -37.15,0.18 -35.25,-30.73 -38.77,-53.16 -3.84,-24.49 13.39,-28.95 33.43,-29.22 28.79,-0.39 57.59,-0.79 86.38,-1.19 101.21,-1.39 202.45,-11.29 303.23,-12.01 45.81,-0.32 45.74,32.43 54.02,60.25 8.68,29.17 15.37,54.73 -25.2,72.24" /><path
             id="path32"
             style="fill:#7fcb2b;fill-opacity:1;fill-rule:nonzero;stroke:none"
             d="m 3938.72,1814.67 c -119.29,35.3 -239,69.31 -357.66,106.62 -30.46,9.58 -47.34,8.27 -64.1,-22.02 -16.76,-30.29 -15.15,-49.3 11.65,-72.42 93.1,-80.3 184.19,-162.94 276.43,-244.26 16.26,-14.34 33.3,-41.01 56.76,-11.16 18.97,24.13 32.35,48.82 -1.67,76.44 -52.53,42.65 -101.53,89.64 -152.02,134.79 2.07,3.42 4.14,6.84 6.2,10.26 66.4,-19.82 132.99,-39.02 199.12,-59.69 38.71,-12.1 51.41,14.11 61.11,41.08 11.43,31.77 -15.46,34.34 -35.82,40.36" /><path
             id="path34"
             style="fill:#7fcb2b;fill-opacity:1;fill-rule:nonzero;stroke:none"
             d="m 4211.6,2728.6 c -65.87,15.14 -130.26,36.76 -195.28,55.62 -0.02,2.97 -0.04,5.94 -0.06,8.91 69.91,11.93 139.51,26.59 209.85,34.8 43.65,5.1 39.04,33.05 37.77,60.7 -1.64,35.94 -29.31,25.57 -48.64,22.62 -124.73,-19.01 -249,-41.29 -374.01,-58.07 -37.26,-5 -40.41,-24.4 -43.67,-52.9 -3.54,-30.96 7.97,-44.18 37.87,-52.47 118.42,-32.83 235.92,-68.95 354.21,-102.26 21.19,-5.96 51.72,-24.39 61.74,13.27 8.62,32.37 3.46,59.84 -39.78,69.78" /><path
             id="path36"
             style="fill:#7fcb2b;fill-opacity:1;fill-rule:nonzero;stroke:none"
             d="m 3766.7,1515.46 c -83.28,54.73 -164.57,112.46 -247.62,167.55 -20.14,13.37 -39.54,31.79 -67.17,28.49 -25.39,2.22 -46.53,-6.93 -61.42,-26.74 -20.93,-27.87 -38.75,-58.12 -60.39,-85.38 -19.03,-23.98 -22.01,-40.93 6.12,-61.27 28.72,-20.77 46.95,-17.16 63.87,12.78 10.61,18.77 23.46,36.33 36.11,53.86 5.57,7.73 13.05,19.94 23.36,13.81 24.1,-14.34 51,-28.07 67.81,-49.18 11.81,-14.84 -15.64,-29.26 -21.95,-45.76 -2.29,-5.99 -7.24,-11.09 -11.47,-16.2 -18.87,-22.81 -15.88,-40.29 9.26,-57.54 24.29,-16.67 43.43,-23.42 60.44,8.17 7.84,14.54 19.47,26.99 28.14,41.15 9.65,15.78 18.94,18.29 36.21,8.44 64.08,-36.54 65.79,-41.5 22.83,-102.96 -5.72,-8.17 -11.69,-16.17 -17.4,-24.34 -19.56,-28 -0.69,-40.27 19.97,-55.18 22.27,-16.08 37.3,-16.48 52.71,8.2 22.87,36.63 44.97,74.31 72.5,107.29 27.47,32.91 22.16,52.42 -11.91,74.81" /><path
             id="path38"
             style="fill:#7fcb2b;fill-opacity:1;fill-rule:nonzero;stroke:none"
             d="m 4115.73,2261.29 c -20.95,9.4 -37.75,1.63 -42,-20.18 -9.57,-48.99 -36.09,-43.31 -72.47,-29.43 -83.73,31.96 -169.07,59.71 -253.13,90.84 -30.5,11.3 -47.91,9.58 -59.82,-26.06 -11.09,-33.18 0.13,-44.66 28.93,-54.48 84.85,-28.91 168.47,-61.51 253.8,-88.81 38.03,-12.16 65.14,-22.05 41.93,-69.54 -11.4,-23.32 3.8,-36.88 26.03,-43.98 17.08,-5.45 38.36,-18.9 47.64,5.03 25.78,66.42 47.8,134.3 68.49,193.53 3.45,38.92 -23,35.72 -39.4,43.08" /><path
             id="path40"
             style="fill:#7fcb2b;fill-opacity:1;fill-rule:nonzero;stroke:none"
             d="m 3545.74,3856.27 c 14.71,-24.08 25.47,-40.16 57.45,-22.21 109.96,61.74 221.26,121.1 331.77,181.87 12.59,6.93 27.53,13.5 28.09,31.81 0.03,37.52 -37.75,60.62 -71.94,42.12 -109.42,-59.22 -218.06,-119.89 -327.5,-179.08 -24.86,-13.44 -34.93,-26.57 -17.87,-54.51" /><path
             id="path42"
             style="fill:#7fcb2b;fill-opacity:1;fill-rule:nonzero;stroke:none"
             d="m 4007.76,1957.37 c -110.41,50.47 -221.57,99.34 -331.24,151.34 -30.65,14.54 -47.35,12.51 -62.77,-19.22 -16.14,-33.21 -3.63,-47.57 26.11,-60.59 112.65,-49.35 224.52,-100.46 336.87,-150.49 36.19,-16.11 64.89,3.25 66.44,43.79 1.94,25.47 -19.7,27.99 -35.41,35.17" /><path
             id="path44"
             style="fill:#959595;fill-opacity:1;fill-rule:nonzero;stroke:none"
             d="m 849.527,2166.75 c 9.532,-21.53 10.782,-32.25 -20.613,-37.9 -174.941,-31.51 -425.75,94.15 -416.016,352.1 2.274,60.26 30.512,108.4 67.43,151.93 154.692,182.42 392.094,234.73 602.882,94.52 65.46,-43.55 132.91,-32.4 170.97,25.09 37.17,56.14 19.47,124.9 -45.35,166.34 -33.51,21.43 -68.23,42.51 -105.12,56.63 -30.8,11.78 -30.22,25.72 -21.22,51.94 28.2,82.22 90.68,113.79 170.98,122.78 81.59,9.14 115.94,49.97 110.13,128.54 -4.45,60.26 -50.02,95.46 -123.1,95.08 -181.48,-0.94 -326.082,-109.34 -379.109,-289.04 -10.223,-34.65 -24.653,-47.53 -59.797,-49.59 -221.317,-12.95 -392.848,-118.65 -527.934,-290.11 -76.281,113.08 -49.789,293.61 54.219,376.38 28.902,23 64.488,25.13 99.105,28.39 66.286,6.26 106.793,49.16 106.145,114.13 -0.629,62.91 -45.449,107.42 -111.27,109.72 -45.171,1.58 -89.816,-2.6 -132.582,-18.19 -26.297,-9.58 -34.55,-1.16 -36.965,26.26 -15.48,175.83 141.661,321.81 313.145,289.54 64.555,-12.15 106.207,-53.43 118.945,-118.19 3.203,-16.27 5.715,-32.67 8.684,-48.99 10.863,-59.79 60.129,-97.2 122.285,-92.93 56.793,3.91 98.754,49.65 100.402,109.46 5.286,191.46 -131.023,352.71 -325.64,379.03 -52.024,7.03 -39.649,22.8 -17.844,50.48 74.785,94.98 218.758,128.82 335.082,78.13 21.254,-9.26 42.067,-22.28 64.34,-25.98 97.889,-16.26 164.119,68.84 123.449,161.59 -14.04,32.03 -2.68,39.83 21.56,49.68 78.29,31.83 157.61,37.98 238.78,12.08 55.34,-17.65 90.76,-53.13 102.27,-111.1 9.85,-49.54 9.35,-99.88 2.03,-148.89 -8.61,-57.62 -41.3,-82.92 -100.62,-95.1 -46.17,-9.48 -92.53,-8.91 -139.11,-9.55 -72.51,-1 -118.21,-45.71 -117.59,-113.56 0.62,-68.34 46.47,-113.5 117.09,-115.09 68.35,-1.53 136.22,2.3 203.11,17.85 24.18,5.62 41.69,9.46 41.46,-29.31 -1.81,-303.21 -1.34,-606.43 -0.49,-909.65 0.08,-28.91 -5.99,-39.38 -38.04,-41.22 -90.46,-5.19 -165.68,-44.99 -224.87,-114.08 -42.04,-49.06 -39.26,-112.36 6.74,-157.07 43.05,-41.83 111.68,-42.43 157.63,-1.23 8.67,7.77 16.54,16.44 25.36,24.02 17.16,14.74 38.15,25.93 59.49,17.89 24.67,-9.29 12.41,-34.74 12.44,-52.54 0.08,-43.14 7.18,-87.03 -3.97,-129.41 -40.85,-155.17 -206.82,-204.1 -329.19,-96.23 -54.42,47.99 -86.48,108.3 -86.37,183.64 0.11,78.45 -45.823,127.06 -116.241,126.09 -69.234,-0.96 -114.113,-51.88 -113.094,-130.08 0.785,-60.26 11.418,-118.78 35.992,-174.28 z M 1062.42,1929.9 c 298.85,-151.5 629.38,38.86 630.52,379.95 0.98,291.63 0.21,583.27 0.16,874.91 -0.05,294.97 1.04,589.95 -0.52,884.91 -0.76,144.91 -57.75,264.87 -185.33,338.17 -195.88,112.55 -467.68,74.25 -627.664,-85.4 -31.426,-31.35 -61.578,-42.2 -104.277,-42.13 -225.629,0.33 -436.711,-171.9 -479.93,-391.71 -5.402,-27.48 -14.941,-43.88 -37.887,-58.47 C 52.9883,3700.06 -40.1133,3440.65 64.418,3210.77 c 8.9218,-19.62 9.5664,-36.11 -0.1758,-56.53 -110.6289,-231.94 -76.2578,-445.02 86.7498,-639.91 20.188,-24.14 30.211,-49.49 32.555,-81.02 7.789,-104.69 37.891,-203.3 100.258,-288.25 159.047,-216.65 432.629,-301.32 688.425,-216.21 29.9,9.95 56.55,18.1 90.19,1.05" /><path
             id="path46"
             style="fill:#959595;fill-opacity:1;fill-rule:nonzero;stroke:none"
             d="m 2208.04,419.91 c -309.9,0.301 -619.8,0.281 -929.71,0.11 -68.96,-0.04 -105.74,-32.168 -106.02,-91.118 -0.29,-60.902 32.24,-89.793 105.25,-90.101 154.83,-0.66 309.66,-0.199 464.49,-0.192 158.28,0.012 316.57,-0.617 474.84,0.332 63.63,0.379 96.99,32.579 96.98,88.688 -0.01,56.883 -39.66,92.223 -105.83,92.281" /><path
             id="path48"
             style="fill:#959595;fill-opacity:1;fill-rule:nonzero;stroke:none"
             d="m 2202.93,666.91 c -153.24,-0.019 -306.48,-0.008 -459.73,-0.008 0,-1.062 0,-2.132 0,-3.191 -161.58,0 -323.16,1.008 -484.72,-0.531 -58.66,-0.559 -87.22,-34.25 -85.91,-92.379 1.24,-54.66 37.87,-87.68 104.65,-87.879 308.28,-0.93 616.56,-0.742 924.83,-0.43 26.51,0.028 53.25,2.988 75.85,19.828 35.33,26.352 44.24,62.762 32.32,102.309 -15.73,52.223 -59.39,62.281 -107.29,62.281" /><path
             id="path50"
             style="fill:#959595;fill-opacity:1;fill-rule:nonzero;stroke:none"
             d="m 1273.37,912.371 c -68.74,-0.07 -100.18,-27.832 -100.66,-88.07 -0.45,-57.84 34.9,-91.559 99.45,-91.649 313.19,-0.461 626.38,-0.472 939.57,-0.211 63.95,0.051 101.66,34.379 102.07,90.52 0.43,58.93 -32.7,88.859 -100.86,89.039 -156.6,0.422 -313.19,0.141 -469.79,0.141 0,0.089 0,0.179 0,0.281 -156.59,0 -313.19,0.098 -469.78,-0.051" /><path
             id="path52"
             style="fill:#959595;fill-opacity:1;fill-rule:nonzero;stroke:none"
             d="m 2991.07,471.152 c -7.08,-19.402 4.38,-56.441 -38.28,-51.41 -77.4,16.797 -155.13,32.278 -232.07,50.988 -35.76,8.7 -15.06,37.59 -13.37,57.469 1.78,20.731 10.24,38.66 37.98,32.531 74.14,-16.378 148.06,-34.148 222.77,-47.39 31.05,-5.5 29.63,-23.938 22.97,-42.188 z m 185.32,337.368 c -98.17,65.582 -197.6,129.269 -295.73,194.91 -28.06,18.77 -48.08,31.01 -72.32,-8.028 -25.03,-40.312 4.51,-48.902 27.28,-63.929 41.3,-27.254 82.86,-54.114 124.31,-81.133 -64.31,0.969 -123.78,8.722 -180.29,26.109 -49.45,15.223 -62.17,-16.75 -78.01,-47.429 -18.92,-36.649 18.51,-40.809 35.65,-52.579 83.06,-57.031 167.7,-111.781 254.45,-169.101 -16.83,-9.938 -28.09,-6.168 -38.89,-3.969 -86.08,17.531 -172.37,34.231 -258,53.758 -33.43,7.633 -49.34,0.973 -54.44,-35.16 -5.76,-40.867 -18.14,-80.758 -25.73,-121.438 -11.15,-59.769 14.79,-97.242 76.62,-110.672 79.35,-17.238 158.9,-33.57 238.5,-49.597 93.85,-18.891 127.29,4.687 142.91,99.457 8.51,51.652 10.83,105.453 27.72,154.203 11.31,32.66 3.92,43.168 -20.85,58.398 -47.66,29.289 -93.49,61.582 -147.69,97.692 16.53,0 23.27,1.16 29.47,-0.18 58.3,-12.543 116.56,-25.34 174.76,-38.402 41.83,-9.391 55.37,21.98 69.92,49.59 15.9,30.199 -13.85,36.949 -29.64,47.5" /><path
             id="path54"
             style="fill:#959595;fill-opacity:1;fill-rule:nonzero;stroke:none"
             d="m 1271.98,980.32 c 63.12,0.289 90.29,36.97 89.84,148.42 -3.98,29.18 -8.32,85.61 -19.74,140.56 -45.9,220.92 -161.57,394.15 -357.959,509.46 -50.82,29.84 -111.223,15.39 -136.328,-28.68 -26.18,-45.95 -8.121,-100.39 44.816,-129.6 93.235,-51.46 160.381,-127.48 210.771,-219.77 56.31,-103.14 73.01,-215.67 78.53,-330.89 2.83,-59.17 33.76,-89.761 90.07,-89.5" /><path
             id="path56"
             style="fill:#959595;fill-opacity:1;fill-rule:nonzero;stroke:none"
             d="m 2644.91,1686.46 c 4.39,37.2 -1.21,71.12 -35.2,92.11 -39.4,24.32 -79.27,18.96 -117.83,-4.68 -247.93,-152 -351.25,-384.2 -368.71,-649.84 0,-25.96 -0.36,-37.63 0.06,-49.28 2.11,-59.46 36.96,-95 92.37,-94.458 54.96,0.528 85.59,32.758 88.78,91.618 1.98,36.49 3.88,73.17 9.12,109.29 27.19,187.26 109.85,339.78 277.77,438.12 26.26,15.38 49.65,33.2 53.64,67.12" /><path
             id="path58"
             style="fill:#959595;fill-opacity:1;fill-rule:nonzero;stroke:none"
             d="m 2033.33,180.242 c -193.22,1.91 -386.48,1.899 -579.71,0.07 -54.11,-0.511 -92.03,-44.121 -90.37,-93.5425 1.67,-50.0703 40.39,-85.910125 96.03,-86.367156 93.28,-0.761719 186.58,-0.210938 279.86,-0.132813 96.62,0.070313 193.26,-0.789062 289.86,0.410157 53.92,0.660152 91.19,36.191412 92.91,84.320312 1.8,50.422 -35.21,94.719 -88.58,95.242" /><path
             id="path60"
             style="fill:#959595;fill-opacity:1;fill-rule:nonzero;stroke:none"
             d="m 1904.68,1709.77 c -18.83,-47.09 -51.14,-60.6 -94.68,-64.5 -48.1,-4.31 -95.69,-4.55 -144.12,1.81 -36.51,4.78 -61.83,13.99 -73.61,52.21 -7.42,24.05 -27.12,41.91 -49.05,54.78 -18.19,10.69 -38.76,12.44 -56.87,0.61 -18.56,-12.14 -14.27,-32.56 -11.6,-50.36 4.68,-31.22 21.58,-57.21 47.7,-72.92 27.79,-16.71 35.55,-41.22 40.75,-69.52 20.74,-113.06 29.81,-227.11 31.39,-341.96 0.71,-51.54 4,-103.05 5.99,-154.57 0.82,-21.24 4.1,-42.14 30.74,-42.92 29.69,-0.88 33.77,21.32 34.4,44.59 0.14,4.99 -0.07,9.99 -0.1,14.99 -0.86,156.37 -3.3,312.68 -30.66,467.26 -5.12,28.96 7.43,33.53 32.66,32.64 49.89,-1.76 100.04,-3.03 149.79,0.15 34.26,2.2 40.35,-11.53 35.04,-40.4 -21.42,-116.4 -29.87,-233.96 -31.38,-352.18 0,-44.97 -0.25,-89.93 0.12,-134.9 0.15,-19.48 10.09,-31.81 30.22,-32.24 19.83,-0.43 30.58,10.86 32.43,30.41 0.62,6.62 0.26,13.33 0.62,19.98 6.36,117.88 7.3,236.4 21.07,353.42 9.44,80.29 1.24,169.27 80.92,229.72 26.69,20.25 43.44,63.52 13.02,97.91 -21.87,24.71 -75.6,3.97 -94.79,-44.01" /><path
             id="path62"
             style="fill:#959595;fill-opacity:1;fill-rule:nonzero;stroke:none"
             d="m 3509.91,1150.12 c -91.8,79.55 -184.31,158.28 -275.65,238.34 -22.84,20.01 -40.29,32.1 -65.2,1.47 -22.85,-28.11 -15.77,-45.34 9.32,-65.91 48.48,-39.75 95.12,-81.77 142.52,-122.85 -34.25,1.02 -63.93,10.15 -94.08,17.32 -33.35,7.93 -44.81,-6.06 -32.09,-37.49 12.15,-30.05 26.22,-59.33 39.45,-88.95 -2.45,-1.39 -4.89,-2.78 -7.34,-4.17 -47.64,41.02 -96.01,81.22 -142.63,123.36 -25.48,23.02 -45.07,28.46 -69.73,-2.3 -25.25,-31.49 -5.86,-47.16 15.51,-65.4 89.83,-76.7 179.51,-153.571 268.98,-230.681 16.38,-14.109 31.92,-35.039 54.68,-13.507 20.41,19.308 49.74,35.347 28.31,74.378 -21.16,38.53 -36.19,80.43 -57.37,128.74 50.97,-14.47 93.91,-25.55 136.11,-38.97 37.12,-11.8 50.85,16.34 67.29,37.81 17.89,23.36 -3.48,36.16 -18.08,48.81" /><path
             id="path64"
             style="fill:#959595;fill-opacity:1;fill-rule:nonzero;stroke:none"
             d="m 2464.12,4718.44 c 32.41,-10.28 48.44,-6.87 58.88,27.35 15.39,50.48 34.86,99.71 55.1,156.54 16.07,-31.32 13.13,-54.99 13.72,-77.94 1.07,-41.57 1.24,-83.18 1.3,-124.77 0.06,-41.91 37.06,-36.3 60.69,-46.18 21.66,-9.05 32.95,4.85 39.99,24.95 42.19,120.45 85.01,240.68 127.52,361.02 11.43,32.36 -7.24,43.02 -34.15,53.26 -28.72,10.94 -38.3,-0.06 -46.53,-25.01 -18.53,-56.12 -39.13,-111.55 -58.89,-167.26 -2.17,0.53 -4.33,1.06 -6.5,1.6 -3.44,68.03 -8.47,136.04 -9.74,204.11 -0.83,44.68 -37.63,40.42 -62.78,50.22 -29.69,11.57 -32.19,-18.04 -37.92,-33.92 -41.68,-115.44 -81.21,-231.65 -122.24,-347.32 -9.31,-26.23 -14.96,-45.08 21.55,-56.65" /><path
             id="path66"
             style="fill:#959595;fill-opacity:1;fill-rule:nonzero;stroke:none"
             d="m 3082.1,4411.71 c 20.42,-15 36.64,-34.8 61.85,-4.4 39.07,47.12 81.13,91.76 131.97,148.71 -28.55,-78.59 -50.26,-144.24 -76.38,-208.1 -17.14,-41.91 18.26,-52.1 37.62,-70.82 17.38,-16.8 33.54,-3.92 46.52,10.94 83.02,95.03 164.89,191.11 249.76,284.46 23.99,26.39 16.82,39.83 -4.83,60.33 -24.72,23.41 -41.28,18.18 -61.06,-5.7 -36.99,-44.65 -75.91,-87.7 -114.02,-131.41 -2.35,1.56 -4.7,3.12 -7.05,4.69 23.39,63.45 45.05,127.61 70.76,190.1 18.53,45.05 -21.04,54.24 -41.79,72.98 -22.44,20.26 -34.24,-4.1 -46.98,-18.6 -82.23,-93.64 -164.2,-187.5 -247.14,-280.51 -17.3,-19.4 -24.17,-34.36 0.77,-52.67" /><path
             id="path68"
             style="fill:#959595;fill-opacity:1;fill-rule:nonzero;stroke:none"
             d="m 1626.17,5171.61 c 18.53,-1.11 25.57,-6.6 27.59,-25.76 8.19,-77.64 17.88,-155.14 27.86,-232.58 1.16,-9.06 1.1,-24.09 -8.24,-29.4 -2.82,-1.61 -6.21,-1.75 -9.45,-1.94 -20.12,-1.16 -42.96,-11.27 -62.87,-5.5 -11.97,3.46 -15.06,17.31 -16.28,28.16 -7.8,69.35 -14.94,138.77 -21.3,198.19 -2.32,64.28 7.07,72.17 62.69,68.83 z m -115.05,-357.38 c 3.37,-30.84 20.77,-33.69 45.06,-30.23 39.35,5.61 78.74,10.97 118.14,16.27 74.17,9.96 93.69,33.45 88.61,136.5 -7.41,64.59 -17.03,156.99 -29.02,249.09 -5.48,42.12 -45.7,76.3 -86.86,73.35 -51.22,-3.67 -102.05,-12.33 -153.18,-17.6 -20.75,-2.15 -30.65,-11.59 -28.29,-32.1 15.17,-131.76 31.15,-263.44 45.54,-395.28" /><path
             id="path70"
             style="fill:#959595;fill-opacity:1;fill-rule:nonzero;stroke:none"
             d="m 3313.02,4227.2 c 0.45,-47.79 78.83,-146.57 122.53,-154.52 24.67,-4.48 49.33,-3.65 70.9,14.37 39.54,33.03 80.18,64.75 120.28,97.12 18.77,15.15 22.59,31.33 5.11,50.9 -17.69,19.82 -33.69,41.14 -50.95,61.36 -10.67,12.51 -24.32,21.16 -37.93,5.9 -13.35,-14.95 -49.24,-28.16 -33.11,-47.99 39.75,-48.89 -9.61,-56.74 -28.94,-78.03 -23.1,-25.47 -39.47,-10.35 -54.76,11.09 -14.21,19.93 -35.49,36.21 -3.36,60.78 55.43,42.37 108.03,88.44 163.07,131.35 12.13,9.46 23.31,39.38 42.53,18.66 17.73,-19.12 51.53,-33.56 37.44,-72.18 -12.03,-32.98 14.72,-51.09 36.22,-62.49 21.42,-11.36 36.6,12.3 46.71,28.27 20.28,32.05 21.71,66.42 -1.94,98.1 -17.89,23.95 -36.88,47.24 -57.1,69.24 -39.34,42.83 -87.19,46.13 -132.86,9.15 -69.81,-56.53 -138.93,-113.94 -208.35,-170.96 -22.98,-18.87 -39.07,-41.08 -35.49,-70.12" /><path
             id="path72"
             style="fill:#959595;fill-opacity:1;fill-rule:nonzero;stroke:none"
             d="m 1274.3,5042.34 c 13.78,-29.33 27.24,-58.82 41.45,-87.94 9.33,-19.13 1.1,-27.33 -17.02,-31.25 -19.56,-4.23 -26.7,3.6 -27.2,23.13 -0.8,31.18 -3.72,62.32 -5.75,93.47 2.84,0.86 5.68,1.72 8.52,2.59 z m -87.09,-25.85 c 0.68,-10.17 1.29,-20.36 1.63,-30.57 1.21,-35.29 0.91,-70.56 1.75,-105.83 0.82,-41.81 1.63,-83.63 1.77,-125.44 0.05,-16.32 -2.12,-37.35 19.97,-39.68 19.15,-2.02 41.19,1.27 55.17,16.21 13.42,14.36 6.9,35.15 6.33,52.93 -0.92,28.5 -0.24,50.79 36.9,57.73 34.7,6.47 60.64,7.44 70.46,-33.63 2.27,-9.52 7.66,-18.38 12.17,-27.27 18.57,-36.6 46.28,-15.29 69.39,-8.75 28.29,8.01 14.64,28.86 7.61,44.51 -53.01,118.12 -108.28,235.25 -159.31,354.2 -21.84,50.88 -55.56,18.99 -83.98,17.59 -28.34,-1.4 -49.07,-13.3 -45.86,-49.97 2.24,-25.63 2.01,-51.37 3.17,-77.05 0.69,-15.01 1.83,-29.98 2.83,-44.98" /><path
             id="path74"
             style="fill:#959595;fill-opacity:1;fill-rule:nonzero;stroke:none"
             d="m 2280.43,4988.14 c 11.36,27.31 22.91,54.54 34.39,81.81 2.82,-0.07 5.65,-0.13 8.47,-0.2 0,-29.76 0.35,-59.54 -0.21,-89.29 -0.17,-9.21 3.51,-23.14 -8.88,-25.17 -10.41,-1.7 -23.1,1.94 -32.84,6.98 -12.25,6.34 -4.58,17.09 -0.93,25.87 z m -108.96,-197.71 c 33.4,-1.16 34.1,24.54 45.09,43.77 9.17,16.03 5.78,41.99 32.46,45.25 49.85,6.08 73.69,-16.02 74.09,-68.26 0.07,-8.33 0.08,-16.66 0.15,-24.99 0.28,-34.03 25.3,-33.01 48.99,-35.66 28.31,-3.16 33.9,12.03 33.68,35.77 -0.6,63.32 -0.2,126.65 -0.15,189.98 0.05,63.32 -3.66,126.93 1.09,189.9 0.94,12.49 0.41,26.74 -7.17,37.33 -8.62,12.03 -24.77,15.03 -38.45,17.85 -16.93,3.49 -42.85,14.56 -59.66,8.23 -15.54,-5.85 -22.56,-23.81 -28.4,-37.95 -46.95,-113.64 -95.31,-226.7 -142.9,-340.08 -18.45,-43.95 -6.28,-59.5 41.18,-61.14" /><path
             id="path76"
             style="fill:#959595;fill-opacity:1;fill-rule:nonzero;stroke:none"
             d="m 2920.95,311.27 c -12.65,0 -25.95,0.242 -39.25,-0.04 -77.66,-1.621 -111.77,-39.148 -106.09,-116.578 4.71,-64.14 4.7,-64.59 -58.65,-63.043 -14.87,0.36 -39.22,-8.41 -39.66,16.293 -0.41,23.43 -21.33,54.657 12.76,70.477 38.74,17.98 16.56,48.043 11.46,68.57 -6.16,24.77 -32.82,15.172 -51.17,9.301 -36.98,-11.828 -58.31,-37.48 -58.82,-77.199 -0.41,-31.571 -0.5,-63.289 2.16,-94.711 4.01,-47.5002 43.06,-82.0002 91.19,-80.6994 36.48,0.9805 73.1,3.3008 109.25,8.0782 38.94,5.164 62.23,30.4531 68.83,68.3012 3.38,19.339 -1.16,39.941 0.82,59.679 1.74,17.352 -12.52,45.531 19.05,47.43 26.15,1.57 62.36,19.152 76.89,-9.75 9.67,-19.25 21.68,-54.457 -10.02,-75.52 -28.83,-19.148 -14.69,-45.1402 -7.28,-66.5582 9.06,-26.1719 33.96,-15.0196 51.38,-10.9414 21.22,4.9726 40.93,17.8515 48.6,39.5426 19.46,55.078 18.54,112.289 -4.18,164.7 -21.53,49.66 -70.05,49.187 -117.27,42.668" /><path
             id="path78"
             style="fill:#959595;fill-opacity:1;fill-rule:nonzero;stroke:none"
             d="m 1893.29,4860.14 c 4.44,-24.39 3.82,-49.7 41,-49.77 33.21,-0.06 58.89,-1.58 69.07,41.56 28.13,119.19 60.95,237.27 91.92,355.78 5.55,21.25 22.44,48.05 -14.9,54.47 -28.5,4.89 -58.74,9.1 -68.2,-35.22 -14.3,-66.95 -34.76,-132.58 -52.6,-198.76 -3.21,-0.02 -6.42,-0.03 -9.63,-0.04 -12.24,67.58 -27.82,134.78 -35.59,202.87 -5.69,49.85 -38.1,43.97 -68.35,40.14 -38.48,-4.87 -21.06,-34.47 -17.54,-54.51 20.93,-118.96 43.23,-237.68 64.82,-356.52" /><path
             id="path80"
             style="fill:#959595;fill-opacity:1;fill-rule:nonzero;stroke:none"
             d="m 2776.06,4598.4 c 27.66,-20.4 61.68,-32.2 92.93,-47.7 28.57,-14.19 55.84,-7.25 80.25,8.81 22.6,14.87 46.92,37.36 30.27,64.62 -13.47,22.06 -38.81,38.36 -71.9,16.49 -29.74,-19.66 -50.8,14.6 -74.22,25 -20.3,9 1.38,28.92 7.86,41.88 29.74,59.49 60.36,118.59 92.6,176.75 7.74,13.96 10.26,42.63 34.79,33.72 23.26,-8.44 56.88,-12.77 61.87,-42.67 6.42,-38.47 34.88,-57.38 61.08,-48.31 31.4,10.88 35.69,47.64 24.29,81.46 -14.34,42.54 -107.7,102.98 -175.13,102.68 -17.32,-1.01 -43.96,-13.35 -59.24,-42.3 -46.56,-88.22 -92.85,-176.6 -137.64,-265.73 -21.85,-43.47 -1.79,-79.64 32.19,-104.7" /><path
             id="path82"
             style="fill:#959595;fill-opacity:1;fill-rule:nonzero;stroke:none"
             d="m 2998.95,4467.29 c 26.93,-20.89 40.22,-8.28 55.28,13.89 69.83,102.77 140.44,205.01 210.62,307.54 6.48,9.47 11.89,19.68 17.63,29.27 -5.8,25.82 -28.91,31.84 -45.93,43.47 -21.34,14.58 -28.96,-5.23 -37.9,-18.26 -71.22,-103.86 -141.18,-208.61 -213.87,-311.43 -21.7,-30.69 -10.27,-45.52 14.17,-64.48" /><path
             id="path84"
             style="fill:#959595;fill-opacity:1;fill-rule:nonzero;stroke:none"
             d="m 3187.91,942.34 c -65.19,61.67 -130.38,123.34 -195.32,185.28 -19,18.12 -37.54,21.9 -54.5,-1.18 -12.41,-16.9 -37.8,-30.71 -9.08,-57.16 96.55,-88.928 191.64,-179.44 287.27,-269.37 9.82,-9.238 20.3,-20.988 33.83,-8.359 15.36,14.34 34.52,26.34 40.65,51.449 -7.27,7.781 -14.63,16.492 -22.85,24.301 -26.5,25.179 -53.43,49.918 -80,75.039" /></g></g></g></g></svg>